# xmcd
# 
# Track frame offsets:
#     150
#     7593
#     27647
#     44265
#     64032
#     84462
#     103502
#     121247
# 
# Disc length: 1910
# 
# Revision: 0
# Processed by: cddbd v1.5.2PL0 Copyright (c) Steve Scherf et al.
# Submitted via: fre:ac v1.0.17
# 
DISCID=57077408
DTITLE=たこやきレインボー - まいど！おおきに！
DYEAR=2016
DGENRE=JPop
TTITLE0=overture～tacoture～
TTITLE1=ナンバサンバイジャー
TTITLE2=オーバー・ザ・たこやきレインボー
TTITLE3=なにわのはにわ
TTITLE4=絶唱！なにわで生まれた少女たち
TTITLE5=元気売りの少女～浪花名歌五十選～
TTITLE6=クリぼっちONE DAY!!
TTITLE7=六甲たこおろし
EXTD=
EXTT0=
EXTT1=
EXTT2=
EXTT3=
EXTT4=
EXTT5=
EXTT6=
EXTT7=
PLAYORDER=
